<svg xmlns="http://www.w3.org/2000/svg" xmlns:xlink="http://www.w3.org/1999/xlink" width="48" height="48" viewBox="0 0 48 48">
    <defs>
        <circle id="a" cx="24" cy="24" r="24"/>
    </defs>
    <g fill="none" fill-rule="evenodd">
        <mask id="b" fill="#fff">
            <use xlink:href="#a"/>
        </mask>
        <use fill="#313D48" fill-opacity=".1" xlink:href="#a"/>
        <path fill="#313D48" fill-rule="nonzero" d="M20.265 32.038c-2.74-1.725-4.035-5.058-4.378-7.838-.757-.072-1.361-1.166-1.361-2.52 0-1.4.644-2.533 1.44-2.533.665-4.285 3.01-8.147 8.548-8.147 5.536 0 7.883 3.863 8.547 8.15.781.023 1.413 1.145 1.413 2.53 0 1.338-.59 2.422-1.336 2.515-.342 2.792-1.653 6.126-4.404 7.848-.008 2.196.339 4.387.953 4.446C39.714 37.199 47 39.905 47 42.952V48H2v-5.048c0-3.047 7.286-5.752 17.311-6.463.615-.06.96-2.254.954-4.451z" mask="url(#b)" opacity=".553"/>
    </g>
</svg>
