<svg xmlns="http://www.w3.org/2000/svg" xmlns:xlink="http://www.w3.org/1999/xlink" width="1440" height="1517" viewBox="0 0 1440 1517">
    <defs>
        <path id="a" d="M0 0h1440v1518H0z"/>
    </defs>
    <g fill="none" fill-rule="evenodd">
        <mask id="b" fill="#fff">
            <use xlink:href="#a"/>
        </mask>
        <use fill="#D8D8D8" xlink:href="#a"/>
        <g mask="url(#b)">
            <path fill="#7CBC56" d="M807.96 731.343c32.688 45.8 67.969 93.035 106.49 140.825-38.521-47.79-73.802-95.025-106.49-140.825"/>
            <path fill="#73B158" d="M-676.352 487.06L500.732 193.472l-997.394-554.602c-185.524 337.027-201.822 642.734-179.69 848.188"/>
            <path fill="#68A855" d="M-675.88 493.744l1.343 11.659 2.546 14.156c75.053 440.842 309.516 710.417 471.288 848.975L500.742 193.497l-1177.085 293.54c0 2.127.463 4.533.463 6.707"/>
            <path fill="#5B9E54" d="M-151.926 1408.349c2.824 1.989 5.787 4.163 8.195 6.43l6.76 5.043c237.01 176.077 464.99 289.376 866.736 310.426 23.335 1.295 46.948 1.85 70.514 1.85 40.328 0 81.488-1.85 122.093-5.274C814.818 1332.801 518.22 249.41 500.72 193.848v-.37l-701.445 1175.084c17.223 14.712 33.475 27.99 48.8 39.787"/>
            <path fill="#5A9252" d="M922.377 1726.815l.37.231c5.51-.601 11.298-.971 17.085-1.527l11.066-1.064c4.954-.508 9.816-1.064 14.77-1.619 248.723-28.868 451.378-115.38 586.157-173.163 32.318-13.832 60.7-26 84.359-35.021-273.772-165.715-492.632-371.123-662.09-570.055v-.185c-20.742-24.195-40.373-48.298-59.634-72.124-38.522-47.929-73.849-95.117-106.49-140.964-16.437-22.9-32.04-45.43-46.948-67.544-15.326-22.16-29.447-43.765-42.874-65.046-20.465-31.783-39.262-62.409-56.764-91.694-11.621-19.476-22.594-38.352-32.78-56.533-25.743-45.2-48.662-85.54-65.052-121.302-62.829-135.181-62.134-133.516-62.829-135.736"/>
            <path fill="#95C65B" d="M1647.824-157.868c-3.287.926-4.815 1.435-5.464 1.712-.787.093-1.064.278 0 0-57.828 17.025-70.514 21.189-1141.618 349.657l2279.255-.185-581.389-180.195-550.784-170.989z"/>
            <path fill="#83BD5C" d="M179.656-1000.86c-1.065.508-2.13 1.017-3.241 1.572-284.514 144.11-514.3 354.422-647.922 594.204l-1.806 3.285c-8.01 13.601-15.742 27.249-23.335 40.896L500.746 193.47l-321.09-1194.33z"/>
            <path fill="#9EC95B" d="M1647.824-158.048l-2.87-1110.778L500.741 193.506c1071.104-328.469 1083.79-332.864 1141.618-349.657-3.287.925 4.723-1.712 5.464-1.897"/>
            <path fill="#91C45A" d="M500.723 193.487l1143.795-1462.286v-.185c-144.363-3.146-305.719-5.968-464.62 6.523-81.118 6.57-162.467 15.776-243.26 28.175-22.873 3.608-46.162 7.448-69.126 11.612-190.525 34.466-390.448 90.814-599.956 180.565v-.787.787c-29.03 12.352-58.476 26.324-87.923 41.082h-.37l.37.185 321.09 1194.33z"/>
            <path fill="#7CBC56" d="M718.139 598.743c13.427 21.281 27.548 42.886 42.873 65.046-15.325-22.16-29.446-43.765-42.873-65.046M661.398 507.027c17.455 29.284 36.3 59.91 56.764 91.693-20.465-31.783-39.309-62.409-56.764-91.693M563.575 329.205c17.41 35.021 39.263 76.103 65.006 121.302-25.743-45.2-47.597-86.28-65.006-121.302M563.575 329.205c-41.716-82.487-61.764-133.192-62.829-135.181 1.065 1.99 21.113 52.694 62.83 135.18M500.723 194.029v-.186.186z"/>
            <path fill="#83BD5C" d="M2779.983 193.307c-139.548 55.793-280.346 112.974-420.496 170.572-211.035 86.466-422.673 174.551-633.152 262.821-140.29 58.893-279.837 117.879-418.83 176.725-69.496 29.239-138.53 58.523-207.239 87.762-.37.23-.694.23-1.11.37l-125.057 53.017c169.458 198.932 388.318 404.248 662.09 570.101 111.212 65 255.946 118.711 465.731 173.302l13.15 3.423c.323 0 .648.185 1.064.185l19.631 3.98c2.871.508-2.916-.556 0 0l118.853-276.516 525.365-1225.742z"/>
            <path fill="#91C45A" d="M500.723 193.487v.555c1.065 2.175 21.113 52.648 62.83 135.181 17.408 34.975 39.308 76.057 65.05 121.302 10.187 18.136 21.16 37.01 32.781 56.488 17.502 29.284 36.3 59.91 56.764 91.74 13.427 21.28 27.548 42.885 42.874 65.046 14.908 22.113 30.511 44.643 46.948 67.544 32.641 45.8 67.968 93.035 106.49 140.964 18.937 23.825 38.892 47.928 59.634 72.078 41.439-17.395 83.248-35.207 125.056-52.833.417-.139.741-.139 1.112-.37 68.709-29.238 137.742-58.523 207.238-87.715 138.993-58.893 278.541-117.693 418.83-176.772 210.48-88.27 422.117-176.355 633.152-262.82 140.15-57.598 280.949-114.78 420.497-170.573l-2279.256.185z"/>
        </g>
    </g>
</svg>
