<svg xmlns="http://www.w3.org/2000/svg" width="104" height="40" viewBox="0 0 104 40">
    <g fill="none" fill-rule="evenodd">
        <path fill="#73B158" d="M93.271 25.95l-4.817 11.157-1.09 2.516h.005a15.68 15.68 0 0 0 6.006.007 14.282 14.282 0 0 0 4.294-1.827c.162-.106.32-.213.477-.322L93.27 25.95z"/>
        <path fill="#7CBC56" d="M93.265 25.956v-.002.002zM93.271 25.95z"/>
        <path fill="#226188" d="M82.865 12.642l.026 10.11v.003l5.05 1.556 5.33 1.64z"/>
        <path fill="#7CBC56" d="M93.271 25.95zM82.891 22.755l5.05 1.556-5.05-1.556zM93.271 25.95h-.002zM82.861 12.642h.004v-.002h-.004z"/>
        <path fill="#29A5BA" d="M80.374.183a13.169 13.169 0 0 0-8.304 4.98l-.065.09c-.04.053-.078.108-.118.16l10.978 7.227L80.375.183z"/>
        <path fill="#73B158" d="M61.583 28.624l10.791-2.672-9.144-5.047c-1.7 3.067-1.85 5.85-1.647 7.719"/>
        <path fill="#7CBC56" d="M95.563 17.3l.002.003z"/>
        <path fill="#68A855" d="M61.587 28.685l.012.106.024.129c.688 4.012 2.837 6.466 4.32 7.727l6.432-10.695-10.792 2.672c0 .02.004.041.004.061"/>
        <path fill="#7CBC56" d="M93.269 25.95h.002-.002z"/>
        <path fill="#5B9E54" d="M66.39 37.009a.758.758 0 0 1 .076.059l.062.045c2.173 1.603 4.263 2.634 7.946 2.826a13.495 13.495 0 0 0 1.766-.031c-.986-3.587-3.705-13.447-3.866-13.952v-.004l-6.43 10.695c.157.134.306.254.447.362"/>
        <path fill="#5A9252" d="M76.24 39.908l.004.002c.05-.006.104-.009.156-.014l.102-.01.135-.015c2.28-.263 4.138-1.05 5.374-1.576.296-.125.557-.236.774-.318-2.51-1.508-4.517-3.378-6.07-5.188v-.003c-.19-.22-.37-.44-.547-.656a28.015 28.015 0 0 1-1.407-1.898 28.833 28.833 0 0 1-1.214-1.941c-.236-.41-.446-.778-.596-1.104-.577-1.23-.57-1.215-.577-1.235"/>
        <path fill="#1E98B0" d="M90.234 2.443a13.143 13.143 0 0 0-3.97-1.921 9.746 9.746 0 0 0-3.22-.513l-.063-.001c-.82-.029-1.653.022-2.484.153l-.123.022 2.487 12.458 7.548-10.07c-.057-.042-.113-.087-.175-.128"/>
        <path fill="#218DA5" d="M95.29 9.654a13.04 13.04 0 0 0-3.406-5.822 13.4 13.4 0 0 0-1.475-1.26L82.86 12.64h.004L95.3 9.7l-.012-.046z"/>
        <path fill="#7CBC56" d="M95.802 14.434l-.003.165c0-.058.003-.112.003-.165M82.891 22.753v.002zM82.891 22.753a2.124 2.124 0 0 0-.05.017l.05-.015v-.002z"/>
        <path fill="#95C65B" d="M82.891 22.755l-.05.015c-.007.001-.01.003 0 0-.53.155-.646.193-10.466 3.182l20.896-.001-5.33-1.64-5.05-1.556z"/>
        <path fill="#7CBC56" d="M82.841 22.77l.05-.015-.05.015"/>
        <path fill="#83BD5C" d="M69.43 15.082l-.029.015c-2.608 1.31-4.715 3.225-5.94 5.408l-.017.03c-.073.123-.144.248-.214.371l9.145 5.046-2.944-10.87z"/>
        <path fill="#7CBC56" d="M82.865 12.64v.002-.002zM82.865 12.642v-.002zM82.865 12.642v-.002.002zM82.865 12.64v.002z"/>
        <path fill="#25B3C4" d="M82.865 12.64L71.887 5.413a12.939 12.939 0 0 0-2.493 7.116c0 .012-.068.98.033 2.538 0 .005 0 .008.004.013.27-.133.54-.26.806-.373V14.7v.007a25.463 25.463 0 0 1 6.134-1.75c.74-.112 1.486-.196 2.23-.255 1.457-.115 2.937-.088 4.264-.06v-.002z"/>
        <path fill="#9EC95B" d="M82.891 22.753l-.026-10.11-10.49 13.31c9.82-2.99 9.936-3.03 10.466-3.183a.318.318 0 0 1 .05-.017"/>
        <path fill="#7CBC56" d="M82.891 22.753l-.026-10.112v.002z"/>
        <path fill="#91C45A" d="M72.374 25.952l10.487-13.309v-.001c-1.323-.028-2.803-.055-4.26.06-.744.059-1.49.143-2.23.256a25.463 25.463 0 0 0-6.134 1.75v-.008.007c-.267.112-.536.24-.806.373h-.004l.004.002 2.943 10.87z"/>
        <path fill="#7CBC56" d="M82.865 12.642v.001zM72.95 27.187c-.382-.75-.565-1.212-.576-1.23.01.018.194.48.577 1.23M72.374 25.957v-.001.001zM93.265 25.956h.004-.004z"/>
        <path fill="#83BD5C" d="M93.271 25.95c-1.28.508-2.57 1.03-3.855 1.553a811.84 811.84 0 0 0-9.645 4c-.637.267-1.27.533-1.9.8l-.01.002-1.147.483c1.554 1.81 3.56 3.68 6.07 5.189 1.02.591 2.347 1.08 4.27 1.577l.12.031.011.002.18.036c.026.005-.027-.005 0 0l1.09-2.516L93.27 25.95z"/>
        <path fill="#7CBC56" d="M83.611 29.895"/>
        <path fill="#91C45A" d="M72.374 25.952v.006c.01.02.194.478.577 1.23.16.318.36.692.596 1.103a29.418 29.418 0 0 0 3.168 4.495c.38-.158.763-.32 1.146-.48l.01-.004a1900.277 1900.277 0 0 1 5.74-2.408 811.94 811.94 0 0 1 5.805-2.391 431.937 431.937 0 0 1 3.856-1.552l-20.898.001z"/>
        <path fill="#20839F" d="M95.7 11.943a13.07 13.07 0 0 0-.37-2.14l-.029-.102-12.436 2.94L95.563 17.3l.002.003c.028-.26.053-.499.084-.742.067-.527.127-1.363.15-1.96l.003-.166c.02-.867-.017-1.701-.103-2.491"/>
        <path fill="#5B9E54" d="M103.556 26.136a14.302 14.302 0 0 0-.726-3.543L93.27 25.95l9.892 4.177c.247-1 .517-2.415.393-3.992"/>
        <path fill="#68A855" d="M103.163 30.128l-9.892-4.177 4.871 11.527c3.467-2.45 4.564-5.75 4.577-5.787.134-.43.24-.8.334-1.15h.003l.034-.133c.006-.026.016-.055.022-.081l.004-.016c.013-.06.03-.121.047-.183"/>
        <path fill="#267491" d="M82.865 12.642L93.272 25.95c.013-.028 1.273-2.214 2.29-8.65l-12.697-4.66z"/>
        <path fill="#5A9252" d="M102.763 22.398c-1.203-3.23-3.444-5.357-5.087-6.474a12.443 12.443 0 0 0-1.887-1.062l.01-.263a25.885 25.885 0 0 1-.15 1.961c-.03.243-.06.481-.086.741-1.018 6.436-2.278 8.623-2.292 8.65l9.559-3.358c-.024-.064-.044-.13-.067-.195"/>
        <path fill="#000105" d="M30.128 19.934h-3.02a3.198 3.198 0 0 1-2.267-.935 3.147 3.147 0 0 1-.94-2.25c0-.849.334-1.648.941-2.25a3.2 3.2 0 0 1 2.268-.932h3.02l-.002 6.367zm16.972-9.4h-9.942c.009.351.056 1.058.27 1.713.287.879.762 1.325 1.414 1.325l8.256.003c.856 0 1.662.332 2.268.934a3.15 3.15 0 0 1 .94 2.25c0 .85-.334 1.648-.941 2.25-.607.601-1.413.933-2.268.933l-13.912-.006.003-9.402H27.11c-3.455 0-6.265 2.787-6.267 6.214-.001 3.427 2.81 6.216 6.264 6.218h3.02v.812c-.001 1.404-1.154 2.547-2.57 2.547h-4.511c-1.565 0-1.687 1.99-1.688 2.6v.497h6.199c3.102 0 5.625-2.531 5.627-5.643v-.811h.42l13.49.006h.003c3.455 0 6.266-2.787 6.267-6.213.001-3.433-2.809-6.225-6.264-6.227z"/>
        <path fill="#000105" d="M37.02 29.422h.434c.269 0 2.623-.049 2.623-1.738v-1.837H37.02v3.575zM15.164 12.212v17.21h.434c.615 0 2.623-.121 2.623-1.674V10.534h-.434c-.616 0-2.623.121-2.623 1.678M9.484 12.212v10.992c0 1.756-1.44 3.185-3.208 3.185h-.002c-.855 0-1.66-.33-2.267-.932a3.148 3.148 0 0 1-.942-2.25l-.002-1.598c-.001-1.552-2.01-1.673-2.625-1.673H0v3.272c.001 3.427 2.816 6.214 6.275 6.214h.002c3.455-.002 6.265-2.792 6.264-6.218v-12.67h-.434c-.616 0-2.623.122-2.623 1.678"/>
    </g>
</svg>
