<svg xmlns="http://www.w3.org/2000/svg" xmlns:xlink="http://www.w3.org/1999/xlink" width="40" height="40" viewBox="0 0 40 40">
    <defs>
        <path id="b" d="M1068 0h372v1010h-372z"/>
        <filter id="a" width="100.5%" height="100.1%" x="-.1%" y="0%" filterUnits="objectBoundingBox">
            <feOffset dx="1" in="SourceAlpha" result="shadowOffsetOuter1"/>
            <feColorMatrix in="shadowOffsetOuter1" values="0 0 0 0 0 0 0 0 0 0 0 0 0 0 0 0 0 0 0.08 0"/>
        </filter>
    </defs>
    <g fill="none" fill-rule="evenodd">
        <path fill="#F8FAF7" d="M-1340-232H100V778h-1440z"/>
        <g transform="rotate(180 584 389)">
            <use fill="#000" filter="url(#a)" xlink:href="#b"/>
            <use fill="#FFF" xlink:href="#b"/>
        </g>
        <g stroke-linecap="round" stroke-linejoin="round" stroke-width="2" transform="translate(9 11)">
            <path stroke="#63BB40" d="M16 18v-2a4 4 0 0 0-4-4H4a4 4 0 0 0-4 4v2"/>
            <circle cx="8" cy="4" r="4" stroke="#63BB40"/>
            <path stroke="#00ACBF" d="M22 18v-2a4 4 0 0 0-3-3.87M15 .13a4 4 0 0 1 0 7.75"/>
        </g>
    </g>
</svg>
